# xmcd
#
# Track frame offsets: 
#        150
#        16439
#        32452
#        44892
#        60688
#        74142
#        89907
#        102228
#        113232
#        124616
#        144961
#        154890
#
# Disc length: 2314 seconds
#
# Revision: 0
# Processed by: cddbd v1.5.2PL0 Copyright (c) Steve Scherf et al.
# Submitted via: ExactAudioCopy v0.99pb4
#
DISCID=b009080c
DTITLE=Puritan Rodeo - (untitled)
DYEAR=2010
DGENRE=Bluegrass
TTITLE0=What I'm Waiting For
TTITLE1=Confidence Man
TTITLE2=Ladyluck
TTITLE3=Once in a While
TTITLE4=Golden Hands
TTITLE5=Lucky and the Blessed
TTITLE6=Wedding Day
TTITLE7=Ballad of Billy Price
TTITLE8=Redline
TTITLE9=Birds of Prey
TTITLE10=All the Dead Once Lived
TTITLE11=Pooreyes
EXTD=
EXTT0=
EXTT1=
EXTT2=
EXTT3=
EXTT4=
EXTT5=
EXTT6=
EXTT7=
EXTT8=
EXTT9=
EXTT10=
EXTT11=
PLAYORDER=
